<svg width="32" height="32" viewBox="0 0 32 32" fill="none" xmlns="http://www.w3.org/2000/svg">
<path d="M24.1429 6.57143H21.5714V5.71429C21.5714 5.25963 21.3908 4.82359 21.0693 4.5021C20.7478 4.18061 20.3118 4 19.8571 4H13C12.5453 4 12.1093 4.18061 11.7878 4.5021C11.4663 4.82359 11.2857 5.25963 11.2857 5.71429V6.57143H8.71429C8.25963 6.57143 7.82359 6.75204 7.5021 7.07353C7.18061 7.39502 7 7.83106 7 8.28571V26.2857C7 26.7404 7.18061 27.1764 7.5021 27.4979C7.82359 27.8194 8.25963 28 8.71429 28H24.1429C24.5975 28 25.0335 27.8194 25.355 27.4979C25.6765 27.1764 25.8571 26.7404 25.8571 26.2857V8.28571C25.8571 7.83106 25.6765 7.39502 25.355 7.07353C25.0335 6.75204 24.5975 6.57143 24.1429 6.57143ZM13 5.71429H19.8571V9.14286H13V5.71429ZM24.1429 26.2857H8.71429V8.28571H11.2857V10.8571H21.5714V8.28571H24.1429V26.2857Z" fill="#8493AE"/>
<path fill-rule="evenodd" clip-rule="evenodd" d="M11.0011 14.0352L11.3555 13.75H11.9479V16.375H11.3284V14.443L11.0011 14.6889V14.0352ZM13.375 14.625H22.125V15.5H13.375V14.625ZM13.375 18.125H22.125V19H13.375V18.125ZM22.125 21.625H13.375V22.5H22.125V21.625ZM12.2743 18.6727L12.2996 18.6386L12.3565 18.5599C12.4487 18.4306 12.4966 18.275 12.493 18.1163C12.493 18.0113 12.4755 17.9062 12.4431 17.8065C12.4099 17.7024 12.3541 17.6069 12.2796 17.5269C12.2052 17.4469 12.114 17.3843 12.0126 17.3436C11.8871 17.2927 11.7525 17.2683 11.6171 17.2719C11.4796 17.2682 11.3429 17.2941 11.2164 17.348C11.1183 17.3903 11.0303 17.4529 10.958 17.5316C10.8858 17.6103 10.831 17.7034 10.7972 17.8047C10.7666 17.8959 10.7507 17.9913 10.75 18.0874V18.1311H11.4587V18.0874C11.4592 18.0387 11.4731 17.9912 11.499 17.95C11.5118 17.9307 11.5289 17.9145 11.5489 17.9028C11.5722 17.8909 11.598 17.8847 11.6241 17.8847C11.6503 17.8847 11.6761 17.8909 11.6994 17.9028C11.7194 17.9164 11.7361 17.9344 11.7484 17.9553C11.7616 17.977 11.7708 18.001 11.7755 18.0261C11.7939 18.1118 11.7828 18.2012 11.744 18.2799C11.7135 18.3358 11.6784 18.3891 11.639 18.4391L10.764 19.4349L10.7535 19.4462V19.9188H12.493V19.3063H11.7055L12.2743 18.6727ZM12.2419 22.0126C12.2821 22.0406 12.3171 22.0739 12.3469 22.1124C12.4506 22.2507 12.5023 22.421 12.493 22.5936C12.493 22.6873 12.4781 22.78 12.4492 22.8684C12.4164 22.969 12.3608 23.0608 12.287 23.1366C12.2131 23.2124 12.1229 23.2703 12.0231 23.3059C11.8888 23.3554 11.7462 23.3788 11.6031 23.375C11.5025 23.375 11.4019 23.361 11.3048 23.3321C11.2245 23.308 11.1483 23.2717 11.079 23.2245C11.0175 23.1823 10.9637 23.1299 10.9198 23.0696C10.8797 23.0152 10.8456 22.9565 10.8183 22.8946C10.7756 22.791 10.7524 22.6803 10.75 22.5682V22.5254H11.4622V22.5682C11.4622 22.5919 11.4649 22.6164 11.4701 22.64C11.4746 22.6631 11.4835 22.6851 11.4964 22.7048C11.5075 22.7238 11.5235 22.7395 11.5427 22.7502C11.564 22.7606 11.5871 22.7666 11.6107 22.7678C11.6343 22.769 11.6579 22.7654 11.6801 22.7572C11.6987 22.7496 11.7155 22.7379 11.7291 22.7231C11.7456 22.7039 11.7581 22.6816 11.7659 22.6575C11.7764 22.6217 11.7815 22.5845 11.7808 22.5472C11.7825 22.499 11.776 22.4507 11.7615 22.4046C11.7525 22.378 11.7371 22.354 11.7169 22.3346C11.7017 22.322 11.6837 22.3133 11.6644 22.3092C11.6421 22.3056 11.6196 22.3035 11.597 22.3031H11.4561V21.7387H11.6031C11.6236 21.7385 11.6439 21.7352 11.6635 21.7291C11.6845 21.7236 11.7039 21.7135 11.7204 21.6994C11.7388 21.6835 11.7532 21.6634 11.7624 21.6407C11.7761 21.6072 11.7824 21.5711 11.7808 21.5349C11.7814 21.5051 11.7767 21.4754 11.7667 21.4474C11.7597 21.4277 11.7484 21.4097 11.7338 21.3948C11.7191 21.3798 11.7014 21.3682 11.6819 21.3608C11.6599 21.3526 11.6365 21.3489 11.613 21.3499C11.5896 21.351 11.5666 21.3568 11.5454 21.3669C11.5259 21.3783 11.5094 21.3942 11.4973 21.4133C11.4749 21.4553 11.463 21.5021 11.4622 21.5497V21.5926H10.75V21.5497C10.7543 21.379 10.8091 21.2134 10.9075 21.0738C10.9506 21.0114 11.0035 20.9564 11.0641 20.911C11.1334 20.8595 11.2109 20.8201 11.2934 20.7946C11.3931 20.7631 11.4981 20.7483 11.6031 20.75C11.7046 20.7491 11.8053 20.7588 11.9041 20.7815C11.9846 20.7999 12.0616 20.8296 12.1343 20.869C12.2537 20.9311 12.3514 21.0282 12.4142 21.1473C12.4653 21.2403 12.4924 21.3447 12.493 21.4509C12.5001 21.6173 12.4483 21.7808 12.3469 21.9129C12.317 21.9511 12.2816 21.9847 12.2419 22.0126Z" fill="#8493AE"/>
</svg>
